<?xml version="1.0" encoding="UTF-8"?><svg xmlns="http://www.w3.org/2000/svg" xmlns:xlink="http://www.w3.org/1999/xlink" height="237.4" preserveAspectRatio="xMidYMid meet" version="1.0" viewBox="0.0 0.0 237.4 237.4" width="237.4" zoomAndPan="magnify"><g id="change1_1"><path d="M167,72.9l-20.2,95c-1,4.7-6.6,6.8-10.5,4l-48.1-35.8l53.1-48c0,0,3.6-2.9,2.6-3.8c-1.1-1.1-5,1.3-7.1,2.7 c-2,1.4-65,41.2-65,41.2L40,118.2c-3.6-1.1-3.6-6,1.6-8.2L159,64.8C164,62.3,168.1,68.1,167,72.9z"/><path d="M118.7,237.4C53.3,237.4,0,184.2,0,118.7C0,53.3,53.3,0,118.7,0c65.5,0,118.7,53.3,118.7,118.7 C237.4,184.2,184.2,237.4,118.7,237.4z M118.7,6.5C56.8,6.5,6.5,56.8,6.5,118.7c0,61.9,50.3,112.2,112.2,112.2 c61.9,0,112.2-50.3,112.2-112.2C230.9,56.8,180.6,6.5,118.7,6.5z"/></g></svg>